
> faceless-video-maker@1.0.0 artist
> ts-node -r dotenv/config --project tsconfig-node.json branded-video-maker.ts artist-promo Chicago Skyway

API Key length: 164
API Key prefix: sk-proj-c-
Creating branded video using artist-promo template...
Loading data for artist: Chicago Skyway
Processing audio from Arweave...
Processing audio from Arweave...
Downloading audio from https://4zj2ozjipdt4lqx3be24koilrjqt4l7igs7hfhumrha7g7qvabaa.arweave.net/5lOnZSh458XC-wk1xTkLimE-L-g0vnKejInB834VAEA...
Downloaded file size: 137018513 bytes
Download complete. Creating 30s clip...
Executing ffmpeg command: ffmpeg -y -i "./output/temp_audio.mp3" -ss 196 -t 30 -acodec libmp3lame -b:a 320k "./output/audio.mp3"
FFmpeg processing output: ffmpeg version 7.1.1 Copyright (c) 2000-2025 the FFmpeg developers
  built with Apple clang version 16.0.0 (clang-1600.0.26.6)
  configuration: --prefix=/usr/local/Cellar/ffmpeg/7.1.1_1 --enable-shared --enable-pthreads --enable-version3 --cc=clang --host-cflags= --host-ldflags='-Wl,-ld_classic' --enable-ffplay --enable-gnutls --enable-gpl --enable-libaom --enable-libaribb24 --enable-libbluray --enable-libdav1d --enable-libharfbuzz --enable-libjxl --enable-libmp3lame --enable-libopus --enable-librav1e --enable-librist --enable-librubberband --enable-libsnappy --enable-libsrt --enable-libssh --enable-libsvtav1 --enable-libtesseract --enable-libtheora --enable-libvidstab --enable-libvmaf --enable-libvorbis --enable-libvpx --enable-libwebp --enable-libx264 --enable-libx265 --enable-libxml2 --enable-libxvid --enable-lzma --enable-libfontconfig --enable-libfreetype --enable-frei0r --enable-libass --enable-libopencore-amrnb --enable-libopencore-amrwb --enable-libopenjpeg --enable-libspeex --enable-libsoxr --enable-libzmq --enable-libzimg --disable-libjack --disable-indev=jack --enable-videotoolbox --enable-audiotoolbox
  libavutil      59. 39.100 / 59. 39.100
  libavcodec     61. 19.101 / 61. 19.101
  libavformat    61.  7.100 / 61.  7.100
  libavdevice    61.  3.100 / 61.  3.100
  libavfilter    10.  4.100 / 10.  4.100
  libswscale      8.  3.100 /  8.  3.100
  libswresample   5.  3.100 /  5.  3.100
  libpostproc    58.  3.100 / 58.  3.100
Input #0, mp3, from './output/temp_audio.mp3':
  Duration: 00:57:05.44, start: 0.025057, bitrate: 320 kb/s
  Stream #0:0: Audio: mp3 (mp3float), 44100 Hz, stereo, fltp, 320 kb/s
      Metadata:
        encoder         : LAME3.100
Stream mapping:
  Stream #0:0 -> #0:0 (mp3 (mp3float) -> mp3 (libmp3lame))
Press [q] to stop, [?] for help
Output #0, mp3, to './output/audio.mp3':
  Metadata:
    TSSE            : Lavf61.7.100
  Stream #0:0: Audio: mp3, 44100 Hz, stereo, fltp, 320 kb/s
      Metadata:
        encoder         : Lavc61.19.101 libmp3lame
size=     512KiB time=00:00:13.58 bitrate= 308.8kbits/s speed=  27x    [out#0/mp3 @ 0x7fb889305540] video:0KiB audio:1173KiB subtitle:0KiB other streams:0KiB global headers:0KiB muxing overhead: 0.090544%
size=    1175KiB time=00:00:30.00 bitrate= 320.7kbits/s speed=35.8x    

Generated audio clip size: 1202720 bytes
Successfully created 30s clip starting at 196s
Successfully processed audio from Arweave
Loading brand style guide...
Cataloging existing promo assets...
Found 0 existing promo assets.
Processing template...
Loading template from templates/artist-promo.json...
Template structure: {
  name: 'Artist Promotion',
  type: 'artist-promo',
  hasScript: true,
  sectionsCount: 3
}
Generating script using prompt: Create a promotional script for electronic music artist Chicago Skyway, who produces Acid, Deep House music. The script should highlight their unique style and sound, featuring their mix titled "Chicago Skyway for Hakeem". placeholder
Sending request to OpenAI API...
Script content: (Opening shot, cool blue lighting illuminates a stylish recording studio as electronic beats subtly fill the space)

Narrator: (Voiceover) "When it comes to music, it's ALL about the vibe."

(Cut to the face of Chicago Skyway, focused, in his element)

Narrator: (Voiceover) "Meet Chicago Skyway. Master of Acid, ruler of Deep House."

(Quick montage of Chicago Skyway performing at various clubs, his music stirring the crowd)

Narrator: (Voiceover) "He doesn't just make music. He engineers musical journeys."

(Cut to a close-up of Chicago Skyway discussing his passion)

Chicago Skyway: "I live on the pulse of rhythm... and my music is the heartbeat."

(Short video showcasing a turntable spinning)

Narrator: (Voiceover) "His latest mix - Chicago Skyway for Hakeem. It's more than a sound. It's a movement."

(Video snippets of people dancing to the tracks on the mix, highlighting their energy and joy)

Narrator: (Voiceover) "With each pulsating beat, Chicago Skyway creates an immersive groove that moves you."

(Cuts to Chicago Skyway)

Chicago Skyway: "Acid, deep house, that’s what I do... Come, join the dance."

(Ending shot featuring the album cover with track play in the background)

Narrator: (Voiceover) "Chicago Skyway for Hakeem - It's music... upgraded. Catch the vibe today."

(Screen fades to black, and then the social media handles and website of Chicago Skyway pop up)

Narrator: (Voiceover) "Follow the music. Follow the journey. Follow Chicago Skyway."

(End with a provocative beat as the video fades out)

Generating image for section 1 with prompt: Dark, moody electronic music venue with subtle lighting and dynamic movement, featuring elements of Acid, Deep House music culture, styled using #1A1F2C and #8B5CF6 color scheme, confident, archival, analog-accurate feeling
Generating image 1/1...
Downloading generated image...
Skipping TTS, creating silent audio file...
Created silent audio track
Generated script (1536 characters) and 3 scenes.
Creating final video with brand styling...
Audio file size: 119852 bytes
Creating video with audio...
Checking for valid images in output/scenes directory...
Found 4 valid images
Creating video from available images...
Adding audio to video...
Video with audio created at: output/artist-promo/2025/04_Apr/chicago_skyway_Apr19_3:29PM_CT.mp4
✅ Branded video created successfully!
Output: output/artist-promo/2025/04_Apr/chicago_skyway_Apr19_3:29PM_CT.mp4
Video creation process completed.
